mastitorrents.com
  
http://mastitorrents.com/forums/index.php







----------------------------------------------------------------------------------------------------
----------------------------------------------------------------------------------------------------

LIKE US @ FACEBOOK


1.  http://urlgator.com/efyQx   [MastiTorrentsReleasers]

2.  http://urlgator.com/FG4tl   [MastiTorrents]


[OR]



Search for "MastiTorrentsReleasers" and "MastiTorrents" 



We are waiting for you!!!



----------------------------------------------------------------------------------------------------
----------------------------------------------------------------------------------------------------





****************************************************************************************************
****************************************************************************************************





   8b    d8    db    .dP"Y8 888888 88 888888  dP"Yb  88""Yb 88""Yb 888888 88b 88 888888 .dP"Y8 
   88b  d88   dPYb   `Ybo."   88   88   88   dP   Yb 88__dP 88__dP 88__   88Yb88   88   `Ybo." 
   88YbdP88  dP__Yb  o.`Y8b   88   88   88   Yb   dP 88"Yb  88"Yb  88""   88 Y88   88   o.`Y8b 
   88 YY 88 dP""""Yb 8bodP'   88   88   88    YbodP  88  Yb 88  Yb 888888 88  Y8   88   8bodP' 




****************************************************************************************************
****************************************************************************************************




====================================================================================================

                           MASTI TORRENTS RELEASERS [ MTR ]

                                Where Quality Matters!

====================================================================================================









description:





Mankatha Movie Overview

Starring: Ajith Kumar, Trisha, Arjun, Andrea, Sneha, Manchu Manoj Kumar, Lakshmi Rai, Premji Amaren, Vedhika, Ganesh Venkatraman, Anjali, Mahat Raghavendra, Kainaat Arora, Jayaprakash V

Director: Venkat Prabhu

Music: Yuvan Shankar Raja

Release Date: 31 Aug 2011

Genre: Action - Thriller

Language: Tamil

Certification: U/A


Plot - Story Line:

Sanjana (Trisha)'s father Arumuga Chettiyar (Jaya Prakash) devises a plan to steal 500 crores, the money, which was used for gambling during Indian Premier League. His gang includes Sumanth (Vaibhav), Prem (Premji), an IIT graduate, Mahat (Mahat Raghavendra), Ganesh (Ashwin Kakumanu), a sub-inspector at Dharavi in Mumbai. After their plan to rob comes to know, suspended cop Vinayak Mahadeva (Ajith Kumar) joins the team of thieves. On the other end, super cop Prithvi (Arjun Sarja) takes oath to uproot the betting business.

How they execute their plot? Will they succeed in their mission? What measures Prithivi take to bring the betting business to halt? Answers for all these questions should be seen on-screen, as the excitement of watching the movie will be lost if one reads here the entire story.


IMDB LINK:

Mankatha (2011) - IMDb
 
http://www.imdb.com/title/tt1705772/




Quote:


General

Complete name : C:\Mankatha (Tamil 2011) Sruthi DVDRip 1CD X264 Mp3 TDM -=MTR=- mastitorrents.mkv
Format : Matroska
Format version : Version 2
File size : 682 MiB
Duration : 2h 33mn
Overall bit rate : 621 Kbps
Movie name : Mankatha (Tamil 2011) Sruthi DVDRip 1CD X264 Mp3 TDM -=MTR=- mastitorrents
Encoded date : UTC 2011-10-11 06:57:38
Writing application : mkvmerge v4.6.0 ('Still Crazy After All These Years') built on Mar 10 2011 02:50:32
Writing library : libebml v1.2.0 + libmatroska v1.1.0

Video
ID : 1
Format : AVC
Format/Info : Advanced Video Codec
Format profile : High@L4.0
Format settings, CABAC : Yes
Format settings, ReFrames : 3 frames
Codec ID : V_MPEG4/ISO/AVC
Duration : 2h 33mn
Bit rate mode : Variable
Bit rate : 364 Kbps
Maximum bit rate : 25.0 Mbps
Width : 640 pixels
Height : 360 pixels
Display aspect ratio : 16:9
Frame rate : 29.970 fps
Color space : YUV
Chroma subsampling : 4:2:0
Bit depth : 8 bits
Scan type : Progressive
Bits/(Pixel*Frame) : 0.053
Stream size : 388 MiB (57%)
Writing library : x264 core 114 r1924 08d04a4
Encoding settings : cabac=1 / ref=3 / deblock=1:0:0 / analyse=0x3:0x133 / me=umh / subme=7 / psy=1 / psy_rd=1.00:0.00 / mixed_ref=1 / me_range=16 / chroma_me=1 / trellis=1 / 8x8dct=1 / cqm=0 / deadzone=21,11 / fast_pskip=1 / chroma_qp_offset=-2 / threads=6 / sliced_threads=0 / nr=0 / decimate=1 / interlaced=0 / constrained_intra=0 / bframes=3 / b_pyramid=0 / b_adapt=1 / b_bias=0 / direct=1 / weightb=1 / open_gop=0 / weightp=2 / keyint=300 / keyint_min=30 / scenecut=40 / intra_refresh=0 / rc_lookahead=40 / rc=2pass / mbtree=1 / bitrate=364 / ratetol=1.0 / qcomp=0.60 / qpmin=0 / qpmax=69 / qpstep=4 / cplxblur=20.0 / qblur=0.5 / vbv_maxrate=25000 / vbv_bufsize=25000 / nal_hrd=vbr / ip_ratio=1.40 / aq=1:1.00

Audio
ID : 2
Format : AC-3
Format/Info : Audio Coding 3
Mode extension : CM (complete main)
Codec ID : A_AC3
Duration : 2h 33mn
Bit rate mode : Constant
Bit rate : 256 Kbps
Channel(s) : 2 channels
Channel positions : Front: L R
Sampling rate : 48.0 KHz
Bit depth : 16 bits
Compression mode : Lossy
Delay relative to video : 66ms
Stream size : 281 MiB (41%)






Quote:




Source : Avatar

Ripper : TheDarkMaster -TDM-







Screens/Covers:

 
http://padamhosting.com/out.php/i117237_MANKATHATDMMTR1.png
 
http://padamhosting.com/out.php/i117238_MANKATHATDMMTR2.png
 
http://padamhosting.com/out.php/i117239_MANKATHATDMMTR3.png
 
http://padamhosting.com/out.php/i117240_MANKATHATDMMTR4.png
 
http://padamhosting.com/out.php/i117241_MANKATHATDMMTR5.png
 
http://padamhosting.com/out.php/i117244_MANKATHATDMMTR8.png
 
http://padamhosting.com/out.php/i117243_MANKATHATDMMTR7.png
 
http://padamhosting.com/out.php/i117242_MANKATHATDMMTR6.png
 
http://padamhosting.com/out.php/i117245_MANKATHATDMMTR9.png
 
http://padamhosting.com/out.php/i117246_MANKATHATDMMTR10.png















****check out my other releases****

 
http://thepiratebay.org/user/tdkdemon/










****************************************************************************************************
****************************************************************************************************





    &lt;&lt;&lt;&lt;&lt;&lt;&lt;SUPERFAST RELEASES BROUGHT TO YOU BY&gt;&gt;&gt;&gt;&gt;&gt;

          


                                  Masti Torrents Releasers [ MTR ]





            8888b.  888888 8b    d8  dP"Yb  88b 88     88888 8b    d8 888888 88""Yb 88888 
             8I  Yb 88__   88b  d88 dP   Yb 88Yb88     88    88b  d88   88   88__dP    88 
             8I  dY 88""   88YbdP88 Yb   dP 88 Y88     88    88YbdP88   88   88"Yb     88 
            8888Y"  888888 88 YY 88  YbodP  88  Y8     88888 88 YY 88   88   88  Yb 88888 





****************************************************************************************************
****************************************************************************************************
